<svg width="189" height="24" fill="none" xmlns="http://www.w3.org/2000/svg"><g clip-path="url(#a)" fill="#050038"><path d="M7.36 11.003a.656.656 0 0 0-1.114.12L.596 22.42a.675.675 0 0 0 .603.976h7.867a.65.65 0 0 0 .604-.372c1.696-3.506.668-8.838-2.31-12.021ZM11.503.728a14.9 14.9 0 0 0-.87 14.708l3.793 7.585a.675.675 0 0 0 .604.373h7.865a.675.675 0 0 0 .604-.976L12.652.723a.637.637 0 0 0-1.148.005h-.001Zm92.254 9.057c0 2.798 1.297 5.018 6.373 5.998 3.028.636 3.662 1.125 3.662 2.134 0 .98-.635 1.615-2.768 1.615a15.617 15.617 0 0 1-7.353-1.99v4.556c1.528.75 3.546 1.587 7.295 1.587 5.306 0 7.411-2.367 7.411-5.883l-14.62-8.017Zm14.62 8.017c0-3.316-1.759-4.873-6.719-5.94-2.739-.606-3.402-1.212-3.402-2.077 0-1.094.98-1.557 2.796-1.557 2.192 0 4.355.663 6.402 1.586V5.46a14.469 14.469 0 0 0-6.258-1.298c-4.901 0-7.439 2.134-7.439 5.623l14.62 8.017ZM171.922 4.45v18.945h4.036V8.95l1.702 3.834 5.71 10.612h5.075V4.45h-4.037v12.227l-1.529-3.547-4.585-8.68h-6.372Zm-25.676 0h-4.412v18.945h4.412V4.45Zm-9.501 13.35c0-3.315-1.759-4.872-6.719-5.939-2.739-.604-3.402-1.21-3.402-2.076 0-1.094.98-1.557 2.797-1.557 2.192 0 4.354.663 6.402 1.586V5.46a14.469 14.469 0 0 0-6.258-1.298c-4.903 0-7.44 2.134-7.44 5.623 0 2.798 1.298 5.018 6.373 5.998 3.028.636 3.662 1.125 3.662 2.134 0 .98-.636 1.615-2.769 1.615a15.622 15.622 0 0 1-7.352-1.99v4.556c1.528.75 3.547 1.587 7.295 1.587 5.306 0 7.411-2.367 7.411-5.883V17.8ZM69.485 4.45v18.945h9.067l1.428-4.094h-6.055V4.45h-4.44Zm-17.917 0v4.095h4.902v14.85h4.44V8.545h5.248V4.45h-14.59Zm-6.438 0h-5.82l-6.606 18.945h5.045l.936-3.19a12.54 12.54 0 0 0 7.066 0l.937 3.19h5.046L45.13 4.45Zm-2.91 12.338a8.615 8.615 0 0 1-2.428-.349l2.427-8.268 2.429 8.27a8.615 8.615 0 0 1-2.428.347ZM94.185 4.45h-5.82L81.76 23.395h5.047l.936-3.19a12.54 12.54 0 0 0 7.066 0l.937 3.19h5.046L94.186 4.45Zm-2.91 12.338c-.821 0-1.64-.117-2.428-.349l2.429-8.268 2.427 8.27a8.615 8.615 0 0 1-2.427.347ZM162.144 4.45h-5.819l-6.606 18.945h5.046l.937-3.19a12.54 12.54 0 0 0 7.066 0l.936 3.19h5.047L162.143 4.45Zm-2.911 12.338a8.605 8.605 0 0 1-2.427-.349l2.427-8.268 2.428 8.27a8.618 8.618 0 0 1-2.428.347Z"/></g><defs><clipPath id="a"><path fill="#fff" transform="translate(.525 .365)" d="M0 0h188.264v23.317H0z"/></clipPath></defs></svg>