<svg width="317" height="334" fill="none" xmlns="http://www.w3.org/2000/svg"><circle cx="312.334" cy="328.999" r="4.218" transform="rotate(-90.328 312.334 328.999)" fill="#fff" fill-opacity=".05"/><circle cx="283.235" cy="329.048" r="4.218" transform="rotate(-90.328 283.235 329.048)" fill="#fff" fill-opacity=".05"/><circle cx="32.277" cy="328.208" r="4.218" transform="rotate(-.445 32.277 328.208)" fill="#fff" fill-opacity=".05"/><circle cx="32.169" cy="299.109" r="4.218" transform="rotate(-.445 32.17 299.109)" fill="#fff" fill-opacity=".05"/><circle cx="4.863" cy="328.208" r="4.218" transform="rotate(-.445 4.863 328.208)" fill="#fff" fill-opacity=".05"/><circle cx="4.755" cy="299.109" r="4.218" transform="rotate(-.445 4.755 299.109)" fill="#fff" fill-opacity=".05"/><circle cx="312.334" cy="33.765" r="4.218" transform="rotate(-90.328 312.334 33.765)" fill="#fff" fill-opacity=".05"/><circle cx="283.235" cy="33.814" r="4.218" transform="rotate(-90.328 283.235 33.814)" fill="#fff" fill-opacity=".05"/><circle cx="312.334" cy="4.242" r="4.218" transform="rotate(-90.328 312.334 4.242)" fill="#fff" fill-opacity=".05"/><circle cx="283.235" cy="4.29" r="4.218" transform="rotate(-90.328 283.235 4.29)" fill="#fff" fill-opacity=".05"/><circle cx="312.758" cy="299.524" r="4.218" transform="rotate(-90.328 312.758 299.524)" fill="#fff" fill-opacity=".05"/><circle cx="283.659" cy="299.573" r="4.218" transform="rotate(-90.328 283.659 299.573)" fill="#fff" fill-opacity=".05"/><circle cx="312.758" cy="270" r="4.218" transform="rotate(-90.328 312.758 270)" fill="#fff" fill-opacity=".05"/><circle cx="283.659" cy="270.049" r="4.218" transform="rotate(-90.328 283.659 270.049)" fill="#fff" fill-opacity=".05"/><circle cx="312.758" cy="240.478" r="4.218" transform="rotate(-90.328 312.758 240.478)" fill="#fff" fill-opacity=".05"/><circle cx="283.659" cy="240.526" r="4.218" transform="rotate(-90.328 283.659 240.526)" fill="#fff" fill-opacity=".05"/><circle cx="312.758" cy="210.954" r="4.218" transform="rotate(-90.328 312.758 210.954)" fill="#fff" fill-opacity=".05"/><circle cx="283.659" cy="211.002" r="4.218" transform="rotate(-90.328 283.659 211.002)" fill="#fff" fill-opacity=".05"/><circle cx="312.758" cy="181.43" r="4.218" transform="rotate(-90.328 312.758 181.43)" fill="#fff" fill-opacity=".05"/><circle cx="283.659" cy="181.479" r="4.218" transform="rotate(-90.328 283.659 181.479)" fill="#fff" fill-opacity=".05"/><circle cx="312.758" cy="151.907" r="4.218" transform="rotate(-90.328 312.758 151.907)" fill="#fff" fill-opacity=".05"/><circle cx="283.659" cy="151.956" r="4.218" transform="rotate(-90.328 283.659 151.956)" fill="#fff" fill-opacity=".05"/><circle cx="312.758" cy="122.384" r="4.218" transform="rotate(-90.328 312.758 122.384)" fill="#fff" fill-opacity=".05"/><circle cx="283.659" cy="122.432" r="4.218" transform="rotate(-90.328 283.659 122.432)" fill="#fff" fill-opacity=".05"/><circle cx="312.758" cy="92.86" r="4.218" transform="rotate(-90.328 312.758 92.86)" fill="#fff" fill-opacity=".05"/><circle cx="283.659" cy="92.908" r="4.218" transform="rotate(-90.328 283.659 92.908)" fill="#fff" fill-opacity=".05"/><circle cx="312.758" cy="63.336" r="4.218" transform="rotate(-90.328 312.758 63.336)" fill="#fff" fill-opacity=".05"/><circle cx="283.659" cy="63.385" r="4.218" transform="rotate(-90.328 283.659 63.385)" fill="#fff" fill-opacity=".05"/><circle cx="200.991" cy="329.048" r="4.218" transform="rotate(-90.328 200.991 329.048)" fill="#fff" fill-opacity=".05"/><circle cx="171.892" cy="329.096" r="4.218" transform="rotate(-90.328 171.892 329.096)" fill="#fff" fill-opacity=".05"/><circle cx="32.001" cy="216.865" r="4.218" transform="rotate(-.445 32.001 216.865)" fill="#fff" fill-opacity=".05"/><circle cx="31.893" cy="187.766" r="4.218" transform="rotate(-.445 31.893 187.766)" fill="#fff" fill-opacity=".05"/><circle cx="4.587" cy="216.865" r="4.218" transform="rotate(-.445 4.587 216.865)" fill="#fff" fill-opacity=".05"/><circle cx="4.479" cy="187.766" r="4.218" transform="rotate(-.445 4.479 187.766)" fill="#fff" fill-opacity=".05"/><circle cx="200.991" cy="33.814" r="4.218" transform="rotate(-90.328 200.991 33.814)" fill="#fff" fill-opacity=".05"/><circle cx="171.892" cy="33.862" r="4.218" transform="rotate(-90.328 171.892 33.862)" fill="#fff" fill-opacity=".05"/><circle cx="200.991" cy="4.29" r="4.218" transform="rotate(-90.328 200.991 4.29)" fill="#fff" fill-opacity=".05"/><circle cx="171.892" cy="4.338" r="4.218" transform="rotate(-90.328 171.892 4.338)" fill="#fff" fill-opacity=".05"/><circle cx="201.415" cy="299.573" r="4.218" transform="rotate(-90.328 201.415 299.573)" fill="#fff" fill-opacity=".05"/><circle cx="172.316" cy="299.621" r="4.218" transform="rotate(-90.328 172.316 299.621)" fill="#fff" fill-opacity=".05"/><circle cx="201.415" cy="270.049" r="4.218" transform="rotate(-90.328 201.415 270.049)" fill="#fff" fill-opacity=".05"/><circle cx="172.316" cy="270.097" r="4.218" transform="rotate(-90.328 172.316 270.097)" fill="#fff" fill-opacity=".05"/><circle cx="201.415" cy="240.526" r="4.218" transform="rotate(-90.328 201.415 240.526)" fill="#fff" fill-opacity=".05"/><circle cx="172.316" cy="240.575" r="4.218" transform="rotate(-90.328 172.316 240.575)" fill="#fff" fill-opacity=".05"/><circle cx="201.415" cy="211.002" r="4.218" transform="rotate(-90.328 201.415 211.002)" fill="#fff" fill-opacity=".05"/><circle cx="172.316" cy="211.051" r="4.218" transform="rotate(-90.328 172.316 211.051)" fill="#fff" fill-opacity=".05"/><circle cx="201.415" cy="181.478" r="4.218" transform="rotate(-90.328 201.415 181.478)" fill="#fff" fill-opacity=".05"/><circle cx="172.316" cy="181.527" r="4.218" transform="rotate(-90.328 172.316 181.527)" fill="#fff" fill-opacity=".05"/><circle cx="201.415" cy="151.956" r="4.218" transform="rotate(-90.328 201.415 151.956)" fill="#fff" fill-opacity=".05"/><circle cx="172.316" cy="152.004" r="4.218" transform="rotate(-90.328 172.316 152.004)" fill="#fff" fill-opacity=".05"/><circle cx="201.415" cy="122.432" r="4.218" transform="rotate(-90.328 201.415 122.432)" fill="#fff" fill-opacity=".05"/><circle cx="172.316" cy="122.481" r="4.218" transform="rotate(-90.328 172.316 122.481)" fill="#fff" fill-opacity=".05"/><circle cx="201.415" cy="92.908" r="4.218" transform="rotate(-90.328 201.415 92.908)" fill="#fff" fill-opacity=".05"/><circle cx="172.316" cy="92.956" r="4.218" transform="rotate(-90.328 172.316 92.956)" fill="#fff" fill-opacity=".05"/><circle cx="201.415" cy="63.385" r="4.218" transform="rotate(-90.328 201.415 63.385)" fill="#fff" fill-opacity=".05"/><circle cx="172.316" cy="63.433" r="4.218" transform="rotate(-90.328 172.316 63.433)" fill="#fff" fill-opacity=".05"/><circle cx="257.929" cy="329.048" r="4.218" transform="rotate(-90.328 257.929 329.048)" fill="#fff" fill-opacity=".05"/><circle cx="228.83" cy="329.096" r="4.218" transform="rotate(-90.328 228.83 329.096)" fill="#fff" fill-opacity=".05"/><circle cx="32.117" cy="273.804" r="4.218" transform="rotate(-.445 32.117 273.804)" fill="#fff" fill-opacity=".05"/><circle cx="32.01" cy="244.704" r="4.218" transform="rotate(-.445 32.01 244.704)" fill="#fff" fill-opacity=".05"/><circle cx="4.703" cy="273.804" r="4.218" transform="rotate(-.445 4.703 273.804)" fill="#fff" fill-opacity=".05"/><circle cx="4.595" cy="244.704" r="4.218" transform="rotate(-.445 4.595 244.704)" fill="#fff" fill-opacity=".05"/><circle cx="257.929" cy="33.814" r="4.218" transform="rotate(-90.328 257.929 33.814)" fill="#fff" fill-opacity=".05"/><circle cx="228.83" cy="33.862" r="4.218" transform="rotate(-90.328 228.83 33.862)" fill="#fff" fill-opacity=".05"/><circle cx="257.929" cy="4.29" r="4.218" transform="rotate(-90.328 257.929 4.29)" fill="#fff" fill-opacity=".05"/><circle cx="228.83" cy="4.338" r="4.218" transform="rotate(-90.328 228.83 4.338)" fill="#fff" fill-opacity=".05"/><circle cx="258.353" cy="299.573" r="4.218" transform="rotate(-90.328 258.353 299.573)" fill="#fff" fill-opacity=".05"/><circle cx="229.254" cy="299.621" r="4.218" transform="rotate(-90.328 229.254 299.621)" fill="#fff" fill-opacity=".05"/><circle cx="258.353" cy="270.049" r="4.218" transform="rotate(-90.328 258.353 270.049)" fill="#fff" fill-opacity=".05"/><circle cx="229.254" cy="270.097" r="4.218" transform="rotate(-90.328 229.254 270.097)" fill="#fff" fill-opacity=".05"/><circle cx="258.353" cy="240.526" r="4.218" transform="rotate(-90.328 258.353 240.526)" fill="#fff" fill-opacity=".05"/><circle cx="229.254" cy="240.575" r="4.218" transform="rotate(-90.328 229.254 240.575)" fill="#fff" fill-opacity=".05"/><circle cx="258.353" cy="211.002" r="4.218" transform="rotate(-90.328 258.353 211.002)" fill="#fff" fill-opacity=".05"/><circle cx="229.254" cy="211.051" r="4.218" transform="rotate(-90.328 229.254 211.051)" fill="#fff" fill-opacity=".05"/><circle cx="258.353" cy="181.478" r="4.218" transform="rotate(-90.328 258.353 181.478)" fill="#fff" fill-opacity=".05"/><circle cx="229.254" cy="181.527" r="4.218" transform="rotate(-90.328 229.254 181.527)" fill="#fff" fill-opacity=".05"/><circle cx="258.353" cy="151.956" r="4.218" transform="rotate(-90.328 258.353 151.956)" fill="#fff" fill-opacity=".05"/><circle cx="229.254" cy="152.004" r="4.218" transform="rotate(-90.328 229.254 152.004)" fill="#fff" fill-opacity=".05"/><circle cx="258.353" cy="122.432" r="4.218" transform="rotate(-90.328 258.353 122.432)" fill="#fff" fill-opacity=".05"/><circle cx="229.254" cy="122.481" r="4.218" transform="rotate(-90.328 229.254 122.481)" fill="#fff" fill-opacity=".05"/><circle cx="258.353" cy="92.908" r="4.218" transform="rotate(-90.328 258.353 92.908)" fill="#fff" fill-opacity=".05"/><circle cx="229.254" cy="92.956" r="4.218" transform="rotate(-90.328 229.254 92.956)" fill="#fff" fill-opacity=".05"/><circle cx="258.353" cy="63.385" r="4.218" transform="rotate(-90.328 258.353 63.385)" fill="#fff" fill-opacity=".05"/><circle cx="229.254" cy="63.433" r="4.218" transform="rotate(-90.328 229.254 63.433)" fill="#fff" fill-opacity=".05"/><circle cx="146.586" cy="329.096" r="4.218" transform="rotate(-90.328 146.586 329.096)" fill="#fff" fill-opacity=".05"/><circle cx="117.487" cy="329.145" r="4.218" transform="rotate(-90.328 117.487 329.145)" fill="#fff" fill-opacity=".05"/><circle cx="31.842" cy="162.46" r="4.218" transform="rotate(-.445 31.842 162.46)" fill="#fff" fill-opacity=".05"/><circle cx="31.734" cy="133.361" r="4.218" transform="rotate(-.445 31.734 133.361)" fill="#fff" fill-opacity=".05"/><circle cx="4.427" cy="162.46" r="4.218" transform="rotate(-.445 4.427 162.46)" fill="#fff" fill-opacity=".05"/><circle cx="4.319" cy="133.361" r="4.218" transform="rotate(-.445 4.32 133.361)" fill="#fff" fill-opacity=".05"/><circle cx="146.586" cy="33.862" r="4.218" transform="rotate(-90.328 146.586 33.862)" fill="#fff" fill-opacity=".05"/><circle cx="117.487" cy="33.91" r="4.218" transform="rotate(-90.328 117.487 33.91)" fill="#fff" fill-opacity=".05"/><circle cx="146.586" cy="4.338" r="4.218" transform="rotate(-90.328 146.586 4.338)" fill="#fff" fill-opacity=".05"/><circle cx="117.486" cy="4.387" r="4.218" transform="rotate(-90.328 117.486 4.387)" fill="#fff" fill-opacity=".05"/><circle cx="147.01" cy="299.621" r="4.218" transform="rotate(-90.328 147.01 299.621)" fill="#fff" fill-opacity=".05"/><circle cx="117.911" cy="299.669" r="4.218" transform="rotate(-90.328 117.911 299.669)" fill="#fff" fill-opacity=".05"/><circle cx="147.01" cy="270.097" r="4.218" transform="rotate(-90.328 147.01 270.097)" fill="#fff" fill-opacity=".05"/><circle cx="117.91" cy="270.145" r="4.218" transform="rotate(-90.328 117.91 270.145)" fill="#fff" fill-opacity=".05"/><circle cx="147.01" cy="240.575" r="4.218" transform="rotate(-90.328 147.01 240.575)" fill="#fff" fill-opacity=".05"/><circle cx="117.91" cy="240.623" r="4.218" transform="rotate(-90.328 117.91 240.623)" fill="#fff" fill-opacity=".05"/><circle cx="147.01" cy="211.051" r="4.218" transform="rotate(-90.328 147.01 211.051)" fill="#fff" fill-opacity=".05"/><circle cx="117.911" cy="211.099" r="4.218" transform="rotate(-90.328 117.911 211.099)" fill="#fff" fill-opacity=".05"/><circle cx="147.01" cy="181.527" r="4.218" transform="rotate(-90.328 147.01 181.527)" fill="#fff" fill-opacity=".05"/><circle cx="117.91" cy="181.575" r="4.218" transform="rotate(-90.328 117.91 181.575)" fill="#fff" fill-opacity=".05"/><circle cx="147.01" cy="152.004" r="4.218" transform="rotate(-90.328 147.01 152.004)" fill="#fff" fill-opacity=".05"/><circle cx="117.91" cy="152.053" r="4.218" transform="rotate(-90.328 117.91 152.053)" fill="#fff" fill-opacity=".05"/><circle cx="147.01" cy="122.48" r="4.218" transform="rotate(-90.328 147.01 122.48)" fill="#fff" fill-opacity=".05"/><circle cx="117.911" cy="122.529" r="4.218" transform="rotate(-90.328 117.911 122.529)" fill="#fff" fill-opacity=".05"/><circle cx="147.01" cy="92.956" r="4.218" transform="rotate(-90.328 147.01 92.956)" fill="#fff" fill-opacity=".05"/><circle cx="117.91" cy="93.005" r="4.218" transform="rotate(-90.328 117.91 93.005)" fill="#fff" fill-opacity=".05"/><circle cx="147.01" cy="63.434" r="4.218" transform="rotate(-90.328 147.01 63.434)" fill="#fff" fill-opacity=".05"/><circle cx="117.91" cy="63.483" r="4.218" transform="rotate(-90.328 117.91 63.483)" fill="#fff" fill-opacity=".05"/><circle cx="89.224" cy="329.048" r="4.218" transform="rotate(-90.328 89.224 329.048)" fill="#fff" fill-opacity=".05"/><circle cx="60.124" cy="329.096" r="4.218" transform="rotate(-90.328 60.124 329.096)" fill="#fff" fill-opacity=".05"/><circle cx="31.773" cy="105.098" r="4.218" transform="rotate(-.445 31.773 105.098)" fill="#fff" fill-opacity=".05"/><circle cx="31.665" cy="75.998" r="4.218" transform="rotate(-.445 31.665 75.998)" fill="#fff" fill-opacity=".05"/><circle cx="4.358" cy="105.098" r="4.218" transform="rotate(-.445 4.358 105.098)" fill="#fff" fill-opacity=".05"/><circle cx="4.25" cy="75.998" r="4.218" transform="rotate(-.445 4.25 75.998)" fill="#fff" fill-opacity=".05"/><circle cx="89.224" cy="33.814" r="4.218" transform="rotate(-90.328 89.224 33.814)" fill="#fff" fill-opacity=".05"/><circle cx="60.124" cy="33.862" r="4.218" transform="rotate(-90.328 60.124 33.862)" fill="#fff" fill-opacity=".05"/><circle cx="89.224" cy="4.29" r="4.218" transform="rotate(-90.328 89.224 4.29)" fill="#fff" fill-opacity=".05"/><circle cx="60.124" cy="4.338" r="4.218" transform="rotate(-90.328 60.124 4.338)" fill="#fff" fill-opacity=".05"/><circle cx="89.648" cy="299.573" r="4.218" transform="rotate(-90.328 89.648 299.573)" fill="#fff" fill-opacity=".05"/><circle cx="60.548" cy="299.621" r="4.218" transform="rotate(-90.328 60.548 299.621)" fill="#fff" fill-opacity=".05"/><circle cx="89.648" cy="270.049" r="4.218" transform="rotate(-90.328 89.648 270.049)" fill="#fff" fill-opacity=".05"/><circle cx="60.548" cy="270.097" r="4.218" transform="rotate(-90.328 60.548 270.097)" fill="#fff" fill-opacity=".05"/><circle cx="89.648" cy="240.526" r="4.218" transform="rotate(-90.328 89.648 240.526)" fill="#fff" fill-opacity=".05"/><circle cx="60.548" cy="240.575" r="4.218" transform="rotate(-90.328 60.548 240.575)" fill="#fff" fill-opacity=".05"/><circle cx="89.648" cy="211.002" r="4.218" transform="rotate(-90.328 89.648 211.002)" fill="#fff" fill-opacity=".05"/><circle cx="60.548" cy="211.051" r="4.218" transform="rotate(-90.328 60.548 211.051)" fill="#fff" fill-opacity=".05"/><circle cx="89.648" cy="181.478" r="4.218" transform="rotate(-90.328 89.648 181.478)" fill="#fff" fill-opacity=".05"/><circle cx="60.548" cy="181.527" r="4.218" transform="rotate(-90.328 60.548 181.527)" fill="#fff" fill-opacity=".05"/><circle cx="89.648" cy="151.956" r="4.218" transform="rotate(-90.328 89.648 151.956)" fill="#fff" fill-opacity=".05"/><circle cx="60.548" cy="152.004" r="4.218" transform="rotate(-90.328 60.548 152.004)" fill="#fff" fill-opacity=".05"/><circle cx="89.648" cy="122.432" r="4.218" transform="rotate(-90.328 89.648 122.432)" fill="#fff" fill-opacity=".05"/><circle cx="60.548" cy="122.481" r="4.218" transform="rotate(-90.328 60.548 122.481)" fill="#fff" fill-opacity=".05"/><circle cx="89.648" cy="92.908" r="4.218" transform="rotate(-90.328 89.648 92.908)" fill="#fff" fill-opacity=".05"/><circle cx="60.548" cy="92.956" r="4.218" transform="rotate(-90.328 60.548 92.956)" fill="#fff" fill-opacity=".05"/><circle cx="89.648" cy="63.385" r="4.218" transform="rotate(-90.328 89.648 63.385)" fill="#fff" fill-opacity=".05"/><circle cx="60.548" cy="63.433" r="4.218" transform="rotate(-90.328 60.548 63.433)" fill="#fff" fill-opacity=".05"/></svg>