<svg width="102" height="31" fill="none" xmlns="http://www.w3.org/2000/svg"><g clip-path="url(#a)" fill="#050038"><path d="M.68 6.874h3.517v7.787h7.42V6.875h3.523v19.113h-3.522v-7.95h-7.42v7.95H.678V6.874Zm25.606 12.888a2.904 2.904 0 0 1-.855 2.052 2.92 2.92 0 0 1-4.118 0 2.904 2.904 0 0 1-.855-2.052v-8.228H17.12v8.228c0 3.433 2.804 6.226 6.25 6.226 3.447 0 6.25-2.793 6.25-6.226v-8.228h-3.334v8.228Zm12.65-8.132c-1.655 0-2.81.478-3.927 1.569V6.874h-3.347v11.722c0 4.387 3.185 7.391 6.763 7.391 3.977 0 7.462-3.057 7.462-7.178 0-4.069-3.214-7.18-6.95-7.18Zm.083 11.273c-2.269 0-4.002-1.887-4.002-4.094 0-2.207 1.734-4.094 4.002-4.094 1.922 0 3.657 1.887 3.657 4.094 0 2.207-1.736 4.094-3.657 4.094Zm12.49-10.433c0-1.676 1.12-2.208 2.348-2.208.989 0 2.297.745 3.149 1.649l2.189-2.553C58.1 7.896 55.886 6.885 54.07 6.885c-3.63 0-6.246 2.101-6.246 5.585 0 6.46 7.98 4.413 7.98 8.03 0 1.115-1.093 2.1-2.347 2.1-1.975 0-2.617-.957-3.524-1.968l-2.43 2.5c1.55 1.887 3.47 2.845 5.766 2.845 3.443 0 6.219-2.128 6.219-5.452 0-7.179-7.98-4.945-7.98-8.055ZM68.3 11.442c-3.576 0-6.761 3.003-6.761 7.392v11.751h3.347v-6.354c1.116 1.09 2.27 1.57 3.926 1.57 3.737 0 6.95-3.11 6.95-7.179 0-4.122-3.485-7.18-7.462-7.18Zm.596 11.274c-2.27 0-4.004-1.89-4.004-4.095 0-2.207 1.736-4.095 4.004-4.095 1.921 0 3.656 1.887 3.656 4.094 0 2.207-1.736 4.096-3.656 4.096Zm31.506.187c-1.975 0-2.535-.85-2.535-2.154V14.98h3.069v-2.923h-3.07V8.2L94.48 9.715v11.753c0 3.004 2.082 4.52 4.936 4.52.427 0 1.015-.027 1.336-.105l.827-3.032a17.3 17.3 0 0 1-1.175.053Z"/><path d="M91.576 15.152c-.642-1.1-1.544-1.982-2.672-2.645a7.196 7.196 0 0 0-2.704-.933V8.08a2.585 2.585 0 0 0 1.597-2.416 2.65 2.65 0 0 0-2.652-2.656c-.708 0-1.387.279-1.888.777a2.66 2.66 0 0 0-.786 1.88c0 1.076.576 1.998 1.561 2.415v3.496a7.737 7.737 0 0 0-2.352.734l-9.45-7.149c.076-.252.118-.513.123-.776a2.934 2.934 0 0 0-.865-2.081 2.951 2.951 0 0 0-2.087-.861 2.958 2.958 0 0 0-2.086.862 2.943 2.943 0 0 0-.864 2.08 2.936 2.936 0 0 0 1.822 2.718 2.932 2.932 0 0 0 2.645-.205l.617.467 8.482 6.087c-.46.412-.864.883-1.201 1.4-.677 1.067-1.09 2.241-1.09 3.522v.266c0 .9.171 1.748.464 2.546a6.688 6.688 0 0 0 1.098 1.901l-2.814 2.811a2.275 2.275 0 0 0-3.066 2.132c0 .607.238 1.177.67 1.607a2.265 2.265 0 0 0 1.612.666 2.275 2.275 0 0 0 1.615-.666 2.26 2.26 0 0 0 .563-2.29l2.91-2.899c.398.275.829.506 1.292.706a7.574 7.574 0 0 0 3.025.633h.202a7.151 7.151 0 0 0 3.453-.87 7.134 7.134 0 0 0 2.706-2.538c.677-1.08 1.051-2.273 1.051-3.587v-.065c0-1.291-.3-2.483-.93-3.575Zm-3.554 6.08c-.79.875-1.699 1.414-2.725 1.414h-.169c-.586 0-1.159-.162-1.72-.456-.633-.323-1.113-.784-1.507-1.367-.407-.573-.628-1.199-.628-1.862v-.202c0-.65.126-1.27.442-1.853a4.02 4.02 0 0 1 1.403-1.53 3.444 3.444 0 0 1 1.944-.583h.066c.643 0 1.253.126 1.828.419a3.867 3.867 0 0 1 1.436 1.3c.36.563.575 1.17.644 1.83.01.137.016.277.016.412 0 .896-.343 1.726-1.031 2.478Z"/></g><defs><clipPath id="a"><path fill="#fff" transform="translate(.668 .774)" d="M0 0h101.041v30.226H0z"/></clipPath></defs></svg>