<svg width="74" height="33" fill="none" xmlns="http://www.w3.org/2000/svg"><g clip-path="url(#a)" fill="#050038"><path d="M44.509 6.741h-8.295v.761c.391.05.71.075.979.148.317.073.538.173.71.32.488.417.488 1.228.488 2.653v9.653c0 1.964.172 4.74-2.593 4.692-1.199-.025-2.398-.86-2.79-2.408h-.954c.392 2.604 1.787 4.372 5.139 4.372 2.838 0 5.382-1.326 5.382-5.772V10.623c0-1.45 0-2.187.49-2.63.319-.27.563-.392 1.444-.49V6.74Zm9.543 0h-8.295v.761c.856.075 1.15.221 1.444.493.39.343.464.883.464 1.842v13.46c-.024.933-.073 1.523-.464 1.843-.318.27-.563.392-1.444.49v.762h12.528l1.321-3.856h-.954c-.954 2.112-2.447 2.357-3.817 2.357-1.125 0-1.86-.073-2.373-.393-.417-.27-.563-.982-.588-2.21V10.623c0-1.45 0-2.236.49-2.654.318-.27.832-.368 1.713-.442l-.025-.786Z"/><path d="M67.853 6.742h-8.295v.76c.856.075 1.15.221 1.443.493.392.343.465.883.465 1.842v13.46c-.024.933-.073 1.523-.464 1.843-.319.27-.563.392-1.444.49v.762h12.528l1.321-3.856h-.954c-.955 2.112-2.447 2.357-3.817 2.357-1.126 0-1.86-.073-2.374-.393-.415-.27-.562-.982-.587-2.21V10.623c0-1.45 0-2.236.49-2.653.317-.27.831-.37 1.712-.443v-.785h-.024Zm-55.668 25.62c.392-.172.76-.392 1.127-.638l.22-.147c.448-.33.858-.71 1.223-1.13.49-.516.93-1.106 1.346-1.72.318-.466.587-.983.857-1.498 1.002-2.014 1.663-4.225 2.006-6.412.22-1.425.318-2.849.318-4.249 0-1.4-.098-2.825-.318-4.249-.343-2.186-.979-4.421-2.006-6.412-.123-.22-.246-.466-.367-.687a18.987 18.987 0 0 0-1.347 3.143c.66 1.966 1.053 4.054 1.2 6.117a30.422 30.422 0 0 1 0 4.225c-.172 2.53-.686 5.06-1.664 7.418a15.66 15.66 0 0 1-1.346 2.629c-.122.196-.22.393-.367.589-.27.39-.547.775-.832 1.155-.342.417-.71.835-1.126 1.228-.416.418-.856.786-1.345 1.13-.05.024-.074.048-.123.073v.05a6.564 6.564 0 0 0 2.545-.614Z"/><path d="M17.274 32.363c.392-.173.759-.393 1.126-.64l.22-.146c1.492-1.13 2.593-2.653 3.425-4.3 1.003-2.013 1.664-4.224 2.007-6.41.22-1.425.318-2.85.318-4.25s-.098-2.824-.318-4.25c-.343-2.185-.98-4.42-2.007-6.41-.758-1.523-1.786-2.948-3.107-4.053-.424.456-.816.94-1.175 1.449l.367.516c2.105 3.144 3.133 6.878 3.377 10.636a30.453 30.453 0 0 1 0 4.225c-.244 3.758-1.272 7.516-3.377 10.636-.27.393-.538.76-.831 1.154-.343.418-.71.836-1.126 1.229a9.92 9.92 0 0 1-1.346 1.13c-.05.023-.073.049-.123.073V33a6.945 6.945 0 0 0 2.57-.64v.002Z"/><path d="M23.734 31.55c1.492-1.13 2.594-2.652 3.425-4.298 1.004-2.014 1.664-4.225 2.007-6.41.22-1.425.318-2.85.318-4.25s-.098-2.825-.318-4.25c-.343-2.186-.98-4.42-2.007-6.41-.831-1.647-1.957-3.218-3.425-4.3-1.126-.884-2.52-1.424-3.89-1.449v.05c1.345.932 2.495 2.235 3.376 3.61 2.104 3.144 3.132 6.878 3.377 10.636a30.484 30.484 0 0 1 0 4.225c-.245 3.758-1.273 7.517-3.377 10.636-.905 1.35-2.055 2.653-3.401 3.61V33c1.394-.05 2.79-.59 3.915-1.45ZM17.274.798a7.375 7.375 0 0 0-1.126.64l-.22.146c-.416.32-.832.689-1.224 1.106-.49.516-.93 1.105-1.346 1.72-.318.465-.587.982-.856 1.497-1.003 2.015-1.664 4.226-2.007 6.412a27.843 27.843 0 0 0-.317 4.249c0 1.4.098 2.824.317 4.25.343 2.186.98 4.421 2.007 6.41.122.222.245.467.367.688a18.975 18.975 0 0 0 1.346-3.143c-.66-1.966-1.052-4.054-1.199-6.117a30.515 30.515 0 0 1 0-4.225c.171-2.53.685-5.06 1.664-7.418.392-.885.832-1.793 1.37-2.628.123-.197.22-.393.367-.59.27-.393.538-.762.832-1.155.343-.417.71-.835 1.126-1.228A9.974 9.974 0 0 1 19.72.281c.05-.024.074-.048.123-.073V.183c-.881.025-1.738.246-2.57.614Z"/><path d="M12.186.797a7.38 7.38 0 0 0-1.125.64l-.22.146c-1.468 1.13-2.57 2.653-3.426 4.3-1.003 2.012-1.663 4.223-2.006 6.41a28.153 28.153 0 0 0-.318 4.274c0 1.4.097 2.824.318 4.25.343 2.186.978 4.421 2.006 6.41.759 1.523 1.787 2.948 3.107 4.054.416-.443.808-.933 1.175-1.45l-.367-.516c-2.104-3.143-3.132-6.877-3.377-10.635a30.461 30.461 0 0 1 0-4.226c.245-3.757 1.273-7.516 3.376-10.635.27-.394.54-.762.833-1.155.342-.418.71-.835 1.125-1.228.416-.393.857-.761 1.322-1.08.049-.025.073-.05.122-.074V.183a6.657 6.657 0 0 0-2.545.614Z"/><path d="M5.75 1.608c-1.492 1.13-2.594 2.653-3.425 4.298C1.32 7.921.66 10.132.318 12.318A28.154 28.154 0 0 0 0 16.592c0 1.4.098 2.825.318 4.248.343 2.187.98 4.422 2.007 6.412.831 1.646 1.957 3.218 3.425 4.299 1.126.81 2.496 1.376 3.89 1.425v-.05c-1.37-.933-2.495-2.235-3.4-3.61-2.105-3.144-3.133-6.879-3.377-10.636a30.458 30.458 0 0 1 0-4.226c.244-3.757 1.272-7.516 3.376-10.635C7.12 2.468 8.271 1.166 9.64.233v-.05C8.246.208 6.85.748 5.75 1.608Zm9.884 29.696c.416-.442.807-.933 1.174-1.45l-.367-.515-.367-.59c-.391.59-.832 1.204-1.345 1.72.268.294.611.565.905.835Zm2.767.418c-.355.247-.732.46-1.126.639a6.565 6.565 0 0 0 2.545.613v-.05a10.83 10.83 0 0 1-1.42-1.202Zm-4.136 1.229c.147-.024.268-.049.415-.049-.147-.098-.268-.197-.415-.295a10.573 10.573 0 0 1-.954-.835c-.355.247-.732.46-1.127.639a6.54 6.54 0 0 0 1.665.516c.146-.026.269 0 .416.024Zm.464.025v-.05c-.024-.025-.049-.025-.073-.049-.147.025-.27.05-.416.05.172.049.343.049.49.049Zm-.88-31.1a13.76 13.76 0 0 0-1.175 1.45l.367.516.367.59c.391-.59.832-1.204 1.346-1.72a7.164 7.164 0 0 0-.905-.835v-.001Zm-2.789-.415a7.08 7.08 0 0 1 1.126-.64A6.185 6.185 0 0 0 9.641.184v.05c.518.354.994.766 1.42 1.228Zm6.216-.664a6.544 6.544 0 0 0-1.662-.515c-.147-.025-.27-.05-.417-.05a2.653 2.653 0 0 0-.464-.049v.05c.024.024.048.024.073.049.147.098.269.196.416.294.343.27.66.54.954.835.367-.22.734-.442 1.101-.613Z"/></g><defs><clipPath id="a"><path fill="#fff" transform="translate(0 .183)" d="M0 0h73.406v32.817H0z"/></clipPath></defs></svg>