<svg width="100" height="29" fill="none" xmlns="http://www.w3.org/2000/svg"><g clip-path="url(#a)" fill="#050038"><path d="M49.27 22.413h.61l3.14 4.33v-4.33h.539v5.25h-.511l-3.24-4.457v4.458h-.538v-5.25Zm5.626 0h3.473v.532h-2.912v1.736h2.841v.525h-2.84v1.95h2.94v.51h-3.502v-5.253Zm6.288.531h-1.97v-.53h4.5v.531h-1.969v4.72h-.56v-4.72h-.001Zm3.211-.53h.576l1.381 4.343 1.41-4.344h.482l1.404 4.344 1.388-4.344h.54L69.888 27.7h-.483l-1.417-4.372-1.41 4.372h-.49l-1.693-5.287Zm7.682 2.623c0-1.87.956-2.708 2.636-2.708 1.686 0 2.651.836 2.651 2.708 0 1.877-.965 2.714-2.651 2.714-1.68 0-2.636-.836-2.636-2.714Zm4.727.007c0-1.418-.659-2.183-2.09-2.183-1.424 0-2.076.765-2.076 2.183 0 1.424.651 2.19 2.076 2.19 1.43 0 2.09-.766 2.09-2.19Zm3.822.482h-1.574v2.142h-.546v-5.251h2.27c1.217 0 1.771.488 1.771 1.53 0 .907-.431 1.439-1.347 1.559l1.269 2.161h-.596l-1.247-2.141Zm.155-.509c.745 0 1.206-.227 1.206-1.056 0-.815-.447-1.028-1.227-1.028h-1.706v2.083h1.727v.001Zm4.549-.138-1.049 1.148v1.637h-.545v-5.25h.545v2.897l2.658-2.898h.645L85.7 24.476l2.14 3.19h-.632l-1.878-2.787Zm2.977 2.254.283-.425c.56.358 1.213.543 1.877.532 1.084 0 1.567-.305 1.567-1.028 0-.744-.624-.85-1.567-1.019-1.135-.2-1.9-.391-1.9-1.454 0-1.014.652-1.41 1.9-1.41.822 0 1.41.184 1.83.469l-.298.452c-.375-.249-.935-.412-1.53-.412-.943 0-1.347.263-1.347.886 0 .665.545.795 1.48.964 1.149.206 1.978.377 1.978 1.503 0 1.042-.666 1.546-2.098 1.546-.794 0-1.51-.165-2.175-.603v-.001ZM98.07.709c-7.382 0-7.696 3.307-7.696 7.974v11.456h1.741V8.682c0-3.516-.14-6.338 5.955-6.338.654 0 1.233.035 1.754.095V.781A19.584 19.584 0 0 0 98.07.71ZM11.956 12.686V1.089h1.777V12.72c0 3.344-.035 6.165 6.093 6.165 6.094 0 5.955-2.82 5.955-6.34V1.09h1.741v11.457c0 4.666-.313 7.975-7.696 7.975-7.417-.002-7.87-3.308-7.87-7.836Zm34.082-4.143v11.596h-1.776V8.51c0-3.343.034-6.165-6.095-6.165-6.095 0-5.953 2.822-5.953 6.339v11.456h-1.741V8.682c0-4.666.313-7.973 7.696-7.973 7.416 0 7.869 3.307 7.869 7.834Zm3.232-7.417h1.704V20.14H49.27V1.126Zm4.894 0h8.9c4.414 0 6.417 2.194 6.417 6.095 0 3.926-1.976 6.313-6.44 6.313h-7.172v6.606h-1.705V1.126Zm8.927 10.698c3.075 0 4.603-1.5 4.603-4.527s-1.65-4.464-4.68-4.464h-7.147v8.99h7.224Zm8.375-1.262c0-5.605 1.603-9.924 8.777-9.924 7.417 0 7.66 4.978 7.626 10.238H73.172c.035 4.632 1.184 8.08 7.209 8.08 3.203 0 4.666-.872 6.233-2.02l.974 1.29c-1.74 1.288-3.795 2.299-7.208 2.299-7.521-.003-8.913-4.356-8.913-9.963Zm1.74-1.288h12.955c-.173-3.796-.418-7.035-5.956-7.035-5.326.002-6.788 2.891-6.998 7.035ZM1.266 24.264c7.382 0 7.696-3.308 7.696-7.975v-15.2H7.22v15.2c0 3.517.14 6.338-5.954 6.338-.23 0-.45-.006-.662-.013v1.64c.213.006.434.01.66.01h.002Zm94.661-4.042a1.205 1.205 0 0 1-1.001-1.87 1.202 1.202 0 1 1 1.001 1.87Zm0-2.248c-.578 0-1.047.47-1.047 1.046 0 .576.47 1.048 1.047 1.048a1.048 1.048 0 0 0 0-2.095Z"/><path d="M96.004 19.18h-.386v.531h-.183v-1.38h.614c.35 0 .485.144.485.416 0 .222-.095.378-.333.422l.313.542h-.2l-.31-.53Zm.042-.172c.19 0 .297-.053.297-.255 0-.2-.104-.247-.302-.247h-.423v.502h.428Z"/></g><defs><clipPath id="a"><path fill="#fff" transform="translate(.604 .638)" d="M0 0h99.314v27.635H0z"/></clipPath></defs></svg>