<svg width="132" height="20" fill="none" xmlns="http://www.w3.org/2000/svg"><g clip-path="url(#a)"><path fill-rule="evenodd" clip-rule="evenodd" d="M47.447.544c0 .036-.19.063-.445.063-.254 0-.444.028-.444.064 0 .034-.143.063-.317.063-.175 0-.318.028-.318.064 0 .034-.114.063-.254.063s-.254.028-.254.064c0 .034-.085.063-.19.063-.104 0-.19.028-.19.064 0 .034-.086.063-.19.063-.106 0-.19.028-.19.064 0 .034-.087.063-.192.063-.105 0-.19.028-.19.064 0 .034-.058.063-.127.063-.07 0-.127.029-.127.064 0 .034-.057.063-.127.063s-.127.029-.127.063c0 .035-.057.064-.127.064s-.127.029-.127.063c0 .035-.057.064-.127.064s-.127.029-.127.063c0 .035-.052.064-.113.064-.062 0-.154.057-.205.127-.05.07-.135.127-.19.127-.054 0-.14.057-.19.127-.052.07-.132.127-.18.127-.048 0-.167.086-.265.19-.098.105-.21.19-.248.19-.093 0-1.403 1.311-1.403 1.403 0 .038-.086.15-.19.248-.105.098-.19.218-.19.265 0 .049-.058.13-.128.18-.069.05-.127.142-.127.205 0 .061-.028.112-.063.112s-.063.057-.063.127-.029.127-.064.127-.063.058-.063.127c0 .07-.029.127-.064.127s-.063.058-.063.127c0 .07-.029.127-.064.127s-.063.057-.063.127-.029.127-.064.127-.063.086-.063.19c0 .105-.029.19-.064.19s-.063.058-.063.128-.029.127-.064.127-.063.086-.063.19c0 .105-.029.19-.064.19s-.063.086-.063.191c0 .105-.029.19-.064.19s-.063.143-.063.318c0 .175-.029.318-.064.318-.036 0-.063.19-.063.444s-.028.444-.064.444c-.04 0-.063.403-.063 1.08s.023 1.08.063 1.08c.037 0 .064.21.064.507 0 .296.026.508.063.508.035 0 .064.114.064.254s.028.254.063.254c.034 0 .064.114.064.253 0 .14.028.254.063.254s.064.087.064.19c0 .106.028.191.063.191.034 0 .064.057.064.127s.028.127.063.127c.034 0 .064.086.064.191 0 .104.028.19.063.19.034 0 .064.058.064.127 0 .07.028.128.063.128.034 0 .064.057.064.127 0 .069.028.127.063.127.034 0 .064.057.064.127 0 .069.028.127.063.127.034 0 .064.05.064.112s.056.154.127.204c.069.051.126.137.126.19 0 .056.057.141.127.191.07.051.127.13.127.178 0 .048.114.196.254.331.14.134.254.275.254.313 0 .091.802.892.893.892.038 0 .18.115.314.254.133.14.282.254.33.254.047 0 .127.057.177.127.05.07.137.127.19.127.056 0 .141.058.191.127.05.07.143.128.205.128s.112.029.112.063c0 .035.052.063.114.063.062 0 .154.058.204.128a.348.348 0 0 0 .268.127c.097 0 .177.028.177.063 0 .034.057.064.127.064.069 0 .127.028.127.063 0 .034.057.064.127.064.069 0 .127.028.127.063 0 .034.086.064.19.064.105 0 .19.028.19.063 0 .034.087.064.19.064.106 0 .191.028.191.063 0 .034.115.064.254.064.14 0 .254.028.254.063 0 .034.115.064.254.064.14 0 .254.028.254.063 0 .034.143.064.318.064.174 0 .317.028.317.063 0 .04.593.063 1.65.063 1.059 0 1.651-.023 1.651-.064 0-.034.17-.063.38-.063.213 0 .383-.028.383-.063s.114-.063.254-.063c.139 0 .253-.029.253-.064s.114-.063.254-.063.254-.029.254-.064.087-.063.19-.063c.105 0 .19-.029.19-.064s.087-.063.192-.063c.103 0 .19-.029.19-.064s.086-.063.19-.063c.105 0 .19-.029.19-.064s.058-.063.128-.063.127-.03.127-.064c0-.035.057-.063.127-.063s.127-.03.127-.064c0-.035.056-.063.127-.063.07 0 .126-.03.126-.064 0-.035.058-.063.127-.063.07 0 .127-.03.127-.064 0-.035.052-.063.113-.063.063 0 .155-.058.205-.128.05-.069.143-.127.205-.127s.112-.028.112-.063c0-.034.052-.064.113-.064.062 0 .155-.057.205-.127.05-.069.131-.127.179-.127.048 0 .167-.085.266-.19.097-.105.21-.19.25-.19.106 0 .638-.554.638-.665 0-.053-.028-.097-.064-.097-.034 0-.063-.046-.063-.101 0-.056-.086-.182-.19-.28-.105-.098-.19-.212-.19-.254 0-.042-.087-.155-.19-.254-.106-.097-.191-.217-.191-.265 0-.048-.057-.13-.127-.18-.07-.05-.127-.135-.127-.19 0-.054-.057-.14-.127-.19-.07-.051-.127-.13-.127-.175 0-.046-.101-.185-.225-.308l-.224-.225-.182.196c-.1.107-.222.195-.27.195-.048 0-.129.057-.179.127-.05.069-.136.127-.19.127-.055 0-.14.057-.19.127-.051.069-.143.127-.205.127s-.113.028-.113.063c0 .034-.057.063-.127.063s-.127.029-.127.063c0 .035-.057.064-.127.064s-.127.029-.127.063c0 .035-.057.064-.127.064s-.127.029-.127.063c0 .035-.057.064-.127.064s-.127.029-.127.063c0 .035-.057.064-.127.064s-.127.029-.127.063c0 .035-.057.064-.127.064s-.127.029-.127.063c0 .035-.086.064-.19.064-.105 0-.19.029-.19.063 0 .035-.087.064-.19.064-.106 0-.191.028-.191.063s-.115.064-.254.064c-.14 0-.254.029-.254.063 0 .035-.144.064-.318.064-.174 0-.318.028-.318.063 0 .04-.423.064-1.142.064-.72 0-1.143-.023-1.143-.063 0-.035-.143-.064-.318-.064-.174 0-.317-.029-.317-.064 0-.034-.086-.063-.19-.063-.105 0-.19-.029-.19-.063 0-.036-.087-.064-.191-.064-.105 0-.19-.028-.19-.064 0-.034-.058-.063-.128-.063s-.127-.028-.127-.064c0-.034-.057-.063-.127-.063s-.127-.028-.127-.064c0-.034-.057-.063-.127-.063-.069 0-.127-.028-.127-.064 0-.034-.05-.063-.112-.063-.063 0-.155-.057-.205-.127-.05-.07-.131-.127-.18-.127-.047 0-.167-.086-.265-.19-.097-.105-.21-.19-.25-.19-.092 0-.511-.42-.511-.512 0-.039-.114-.18-.254-.314s-.254-.282-.254-.33c0-.047-.057-.128-.127-.178-.07-.05-.127-.136-.127-.19 0-.055-.057-.14-.127-.19-.07-.05-.127-.143-.127-.205 0-.063-.028-.113-.064-.113-.034 0-.063-.086-.063-.19 0-.106-.028-.19-.064-.19-.034 0-.063-.087-.063-.191 0-.106-.028-.191-.064-.191-.034 0-.063-.087-.063-.19 0-.106-.028-.191-.064-.191-.034 0-.063-.143-.063-.318 0-.174-.028-.317-.063-.317-.04 0-.064-.402-.064-1.08 0-.676.024-1.079.064-1.079.034 0 .063-.142.063-.317 0-.174.029-.318.063-.318.035 0 .064-.086.064-.19 0-.105.029-.19.063-.19.035 0 .064-.087.064-.19 0-.106.029-.191.063-.191.035 0 .064-.057.064-.127s.029-.127.063-.127c.035 0 .064-.057.064-.127s.029-.127.063-.127c.035 0 .064-.052.064-.113 0-.062.057-.154.127-.205.07-.05.127-.135.127-.19 0-.054.057-.14.127-.19.069-.052.127-.13.127-.174 0-.107 1.053-1.16 1.16-1.16.045 0 .122-.057.172-.127.051-.07.137-.127.191-.127.055 0 .14-.057.19-.127.051-.069.144-.127.205-.127.062 0 .113-.028.113-.063 0-.034.058-.064.127-.064.07 0 .127-.028.127-.063 0-.034.057-.064.127-.064s.127-.028.127-.063c0-.034.058-.064.128-.064.069 0 .126-.028.126-.063 0-.034.086-.064.19-.064.105 0 .19-.028.19-.063 0-.034.144-.064.318-.064.175 0 .318-.028.318-.063 0-.036.19-.064.444-.064s.445-.026.445-.063c0-.038.233-.063.572-.063.338 0 .57.025.57.063 0 .037.19.063.445.063.254 0 .444.028.444.064 0 .035.115.063.254.063.14 0 .255.029.255.064s.085.063.19.063c.104 0 .19.029.19.064s.086.063.19.063c.105 0 .19.029.19.064s.058.063.128.063.127.029.127.064.057.063.127.063.127.029.127.064.051.063.112.063c.063 0 .156.057.205.127.051.07.137.127.191.127.054 0 .14.057.19.127.05.07.13.127.178.127.047 0 .196.115.33.254.134.14.278.254.32.254.04 0 .154.086.252.19.098.105.21.19.249.19.039 0 .498-.428 1.02-.951.522-.524.981-.953 1.02-.953.102 0 .25-.166.25-.28 0-.056-.028-.1-.064-.1-.034 0-.063-.044-.063-.097 0-.11-.659-.792-.766-.792-.038 0-.18-.115-.313-.254-.134-.14-.277-.254-.319-.254-.041 0-.155-.086-.252-.19-.098-.105-.224-.19-.28-.19-.056 0-.102-.03-.102-.065 0-.034-.05-.063-.112-.063s-.155-.058-.205-.127c-.05-.07-.142-.127-.204-.127-.063 0-.113-.029-.113-.064 0-.034-.057-.063-.127-.063s-.127-.029-.127-.063c0-.035-.057-.064-.127-.064s-.127-.029-.127-.063c0-.035-.087-.064-.19-.064-.106 0-.191-.029-.191-.063 0-.035-.086-.064-.19-.064-.105 0-.19-.029-.19-.063 0-.035-.087-.064-.19-.064-.106 0-.192-.029-.192-.063 0-.035-.115-.064-.254-.064-.14 0-.254-.029-.254-.063 0-.035-.114-.064-.254-.064S50.75.705 50.75.67c0-.037-.212-.064-.508-.064-.297 0-.509-.026-.509-.063 0-.04-.423-.064-1.142-.064-.72 0-1.143.023-1.143.064Zm20.061 0c0 .037-.211.063-.507.063-.297 0-.508.026-.508.064 0 .034-.143.063-.317.063-.175 0-.318.028-.318.064 0 .034-.086.063-.19.063-.105 0-.19.028-.19.064 0 .034-.115.063-.255.063s-.254.028-.254.064c0 .034-.086.063-.19.063-.105 0-.19.028-.19.064 0 .034-.057.063-.127.063s-.127.028-.127.064c0 .034-.087.063-.19.063-.106 0-.191.029-.191.064 0 .034-.057.063-.127.063s-.127.029-.127.063c0 .035-.058.064-.127.064-.07 0-.127.029-.127.063 0 .035-.052.064-.113.064-.062 0-.155.057-.205.127-.05.07-.142.127-.204.127-.063 0-.113.029-.113.063 0 .035-.045.064-.102.064-.056 0-.18.086-.28.19-.097.105-.211.19-.253.19-.042 0-.156.087-.254.191-.098.105-.21.19-.249.19-.092 0-1.02.93-1.02 1.022 0 .038-.087.15-.19.248-.106.098-.191.213-.191.254 0 .043-.087.156-.19.254-.106.099-.191.218-.191.266 0 .048-.057.129-.127.179-.07.05-.127.142-.127.205 0 .062-.029.112-.064.112s-.063.058-.063.127c0 .07-.029.127-.064.127s-.063.086-.063.19c0 .105-.029.19-.064.19s-.063.058-.063.128-.03.127-.064.127c-.035 0-.063.086-.063.19 0 .105-.03.19-.064.19s-.063.058-.063.128-.029.127-.064.127c-.034 0-.063.114-.063.254s-.03.254-.064.254-.064.086-.064.19c0 .105-.028.19-.063.19-.034 0-.063.143-.063.319 0 .174-.03.316-.064.316-.04 0-.064.614-.064 1.715 0 1.1.024 1.714.064 1.714.035 0 .064.142.064.317 0 .175.028.318.063.318s.063.086.063.19c0 .105.03.19.064.19.035 0 .063.115.063.254 0 .14.03.254.064.254.035 0 .064.087.064.19 0 .106.029.191.063.191.035 0 .064.087.064.19 0 .105.029.191.063.191.035 0 .064.058.064.128 0 .069.028.126.063.126.034 0 .064.058.064.128 0 .069.028.127.063.127.034 0 .064.057.064.127 0 .069.028.127.063.127.034 0 .064.05.064.112s.057.154.127.205c.069.05.127.142.127.204s.028.112.063.112c.034 0 .064.047.064.102 0 .056.085.182.19.28.105.098.19.21.19.248 0 .092 1.438 1.53 1.53 1.53.039 0 .15.086.248.19.098.105.217.19.266.19.047 0 .128.058.178.127.05.07.143.127.205.127s.112.03.112.064c0 .035.052.063.114.063.062 0 .154.058.204.127.05.07.143.128.205.128s.112.028.112.063.058.064.128.064.127.028.127.063c0 .034.085.064.19.064.104 0 .19.028.19.063 0 .034.058.064.128.064.069 0 .127.028.127.063 0 .034.086.064.19.064.105 0 .19.028.19.063 0 .034.086.064.191.064.104 0 .19.028.19.063 0 .034.114.064.254.064s.254.028.254.063c0 .034.115.064.254.064.14 0 .254.028.254.063 0 .034.143.064.318.064.174 0 .317.028.317.063 0 .041.614.063 1.714.063 1.101 0 1.714-.022 1.714-.064 0-.034.143-.063.318-.063.174 0 .317-.028.317-.063s.115-.063.254-.063c.14 0 .254-.029.254-.064s.115-.063.255-.063c.138 0 .253-.029.253-.064s.086-.063.19-.063c.106 0 .19-.029.19-.064s.087-.063.191-.063c.105 0 .19-.029.19-.064s.087-.063.191-.063c.105 0 .19-.029.19-.064s.058-.063.128-.063c.069 0 .127-.03.127-.064 0-.035.057-.063.127-.063.069 0 .127-.03.127-.064 0-.035.05-.063.112-.063.063 0 .155-.058.206-.128.05-.069.141-.126.203-.126.063 0 .113-.03.113-.064s.052-.064.114-.064c.062 0 .153-.057.204-.127.05-.069.13-.127.179-.127.048 0 .168-.085.265-.19.099-.104.21-.19.249-.19.091 0 1.402-1.31 1.402-1.401 0-.038.114-.18.254-.314s.254-.288.254-.343c0-.056.029-.1.063-.1.035 0 .064-.052.064-.114 0-.062.057-.154.127-.204.07-.05.127-.143.127-.205 0-.061.028-.112.063-.112s.064-.057.064-.127.028-.127.064-.127c.034 0 .063-.058.063-.127 0-.07.028-.128.063-.128s.064-.086.064-.19c0-.105.028-.19.064-.19.034 0 .063-.058.063-.128 0-.069.028-.127.064-.127.034 0 .063-.085.063-.19 0-.104.028-.19.064-.19.034 0 .063-.086.063-.19 0-.106.028-.19.063-.19s.064-.115.064-.255.028-.254.064-.254c.034 0 .063-.143.063-.317 0-.176.028-.318.063-.318.041 0 .064-.592.064-1.651 0-1.058-.023-1.65-.064-1.65-.035 0-.064-.17-.064-.381 0-.212-.027-.381-.063-.381-.034 0-.063-.114-.063-.254s-.029-.254-.064-.254c-.034 0-.063-.086-.063-.19 0-.105-.029-.19-.063-.19-.035 0-.064-.058-.064-.128s-.029-.127-.063-.127c-.035 0-.064-.086-.064-.19 0-.105-.029-.19-.063-.19-.035 0-.064-.059-.064-.128 0-.07-.029-.127-.064-.127s-.063-.057-.063-.127-.029-.127-.063-.127c-.035 0-.064-.057-.064-.127s-.029-.127-.063-.127c-.036 0-.064-.057-.064-.127s-.029-.127-.064-.127c-.034 0-.063-.057-.063-.127s-.028-.127-.064-.127c-.034 0-.063-.046-.063-.101 0-.056-.086-.181-.19-.28-.105-.097-.19-.21-.19-.251 0-.04-.144-.213-.319-.384-.174-.17-.317-.34-.317-.378 0-.09-.675-.764-.766-.764-.04 0-.151-.086-.25-.19-.098-.105-.217-.191-.265-.191-.049 0-.129-.057-.179-.127-.05-.07-.136-.127-.19-.127-.055 0-.14-.058-.19-.127-.052-.07-.137-.127-.19-.127-.056 0-.141-.058-.192-.127-.05-.07-.142-.127-.204-.127s-.113-.029-.113-.064c0-.034-.057-.063-.127-.063s-.127-.029-.127-.064c0-.034-.057-.063-.127-.063s-.127-.029-.127-.063c0-.035-.087-.064-.19-.064-.106 0-.191-.029-.191-.063 0-.035-.057-.064-.127-.064s-.127-.029-.127-.063c0-.035-.086-.064-.19-.064-.105 0-.19-.029-.19-.063 0-.035-.116-.064-.255-.064-.14 0-.254-.029-.254-.063 0-.035-.086-.064-.19-.064-.105 0-.19-.029-.19-.063 0-.035-.144-.064-.318-.064-.175 0-.318-.029-.318-.063 0-.037-.212-.064-.508-.064-.296 0-.508-.026-.508-.063 0-.04-.402-.064-1.08-.064-.676 0-1.079.024-1.079.064Zm19.936 0c0 .036-.19.063-.444.063s-.445.028-.445.064c0 .034-.143.063-.317.063-.175 0-.318.028-.318.064 0 .034-.086.063-.19.063-.105 0-.19.028-.19.064 0 .034-.087.063-.19.063-.106 0-.191.028-.191.064 0 .034-.057.063-.127.063s-.127.028-.127.064c0 .034-.087.063-.19.063-.106 0-.191.028-.191.064 0 .034-.052.063-.113.063-.063 0-.155.057-.205.127-.05.07-.136.127-.19.127-.054 0-.14.057-.19.127-.05.07-.13.127-.174.127-.046 0-.297.214-.558.475-.261.261-.475.512-.475.557 0 .046-.057.124-.127.174-.07.05-.127.136-.127.19 0 .055-.057.14-.127.19-.07.052-.127.143-.127.205 0 .063-.029.114-.063.114-.035 0-.064.086-.064.19 0 .105-.028.19-.064.19-.034 0-.063.087-.063.19 0 .106-.028.191-.063.191s-.064.115-.064.254c0 .14-.028.254-.064.254-.039 0-.063.38-.063 1.016 0 .635.024 1.016.063 1.016.035 0 .064.114.064.254s.029.254.063.254c.035 0 .064.086.064.19 0 .105.029.19.063.19.035 0 .064.052.064.113 0 .063.057.155.127.205.069.05.127.13.127.18 0 .048.086.167.19.264.105.099.19.21.19.25 0 .1.55.639.652.639.046 0 .124.058.174.127.05.07.136.127.19.127.055 0 .141.058.191.127.05.07.143.127.205.127s.112.03.112.064.058.064.128.064c.069 0 .127.028.127.063 0 .034.057.064.127.064.069 0 .127.028.127.063 0 .034.057.063.127.063.069 0 .127.029.127.064 0 .034.057.064.127.064.069 0 .127.028.127.063 0 .034.085.063.19.063s.19.029.19.063c0 .035.086.064.19.064.106 0 .19.029.19.063 0 .035.087.064.191.064.106 0 .191.029.191.063 0 .035.087.064.19.064.106 0 .191.029.191.063 0 .035.086.064.19.064.105 0 .19.029.19.063 0 .035.086.064.192.064.104 0 .19.029.19.063 0 .035.086.064.19.064.105 0 .19.029.19.063 0 .035.087.064.191.064.105 0 .19.028.19.063s.087.064.191.064c.105 0 .191.028.191.063s.085.064.19.064.19.028.19.063c0 .034.086.064.19.064.106 0 .192.028.192.063 0 .034.085.064.19.064s.19.028.19.063c0 .034.058.064.127.064.07 0 .128.028.128.064 0 .034.085.063.19.063s.19.028.19.064c0 .034.051.063.114.063.062 0 .153.057.204.127.05.07.129.127.174.127.115 0 .778.674.778.792 0 .053.028.096.064.096.034 0 .063.087.063.19 0 .106.028.191.064.191.036 0 .063.19.063.445 0 .254-.027.445-.063.445-.036 0-.064.085-.064.19 0 .104-.029.19-.063.19-.036 0-.064.051-.064.113 0 .063-.057.154-.127.204-.07.051-.127.13-.127.178 0 .11-.156.267-.267.267-.047 0-.127.057-.177.127-.05.07-.143.127-.205.127s-.113.029-.113.063c0 .035-.085.064-.19.064s-.19.028-.19.063-.115.064-.254.064c-.14 0-.254.028-.254.064 0 .035-.191.063-.445.063s-.444.027-.444.064c0 .036-.19.063-.445.063-.254 0-.445-.027-.445-.063 0-.038-.232-.064-.57-.064-.339 0-.572-.026-.572-.063 0-.035-.143-.064-.317-.064-.175 0-.318-.029-.318-.063 0-.035-.114-.064-.254-.064s-.254-.029-.254-.064c0-.034-.114-.063-.254-.063s-.253-.029-.253-.063c0-.036-.087-.064-.19-.064-.106 0-.191-.028-.191-.064 0-.034-.058-.063-.127-.063-.07 0-.127-.028-.127-.064 0-.034-.058-.063-.127-.063-.07 0-.127-.028-.127-.064 0-.034-.058-.063-.127-.063-.07 0-.128-.028-.128-.064 0-.034-.057-.063-.127-.063-.069 0-.127-.028-.127-.064 0-.034-.057-.063-.127-.063-.069 0-.127-.028-.127-.064 0-.034-.057-.063-.127-.063-.069 0-.126-.028-.126-.063s-.052-.064-.113-.064c-.062 0-.154-.057-.205-.127-.05-.07-.142-.127-.204-.127s-.112-.028-.112-.063-.058-.063-.128-.063c-.085 0-.127.042-.127.127 0 .069-.029.127-.063.127-.035 0-.064.056-.064.126s-.029.127-.063.127c-.035 0-.064.086-.064.19 0 .106-.029.19-.063.19-.035 0-.064.058-.064.128s-.028.127-.064.127c-.034 0-.063.087-.063.19 0 .105-.028.19-.063.19s-.064.058-.064.128c0 .069-.028.127-.064.127-.034 0-.063.086-.063.19 0 .105-.028.19-.064.19-.034 0-.063.087-.063.19 0 .106-.028.191-.064.191-.034 0-.063.087-.063.19 0 .133.031.191.101.191.056 0 .182.087.28.19.098.106.224.191.279.191.056 0 .102.03.102.064 0 .035.05.063.112.063.063 0 .156.058.206.128.05.07.141.126.204.126.062 0 .113.03.113.064s.057.064.127.064.127.028.127.063.057.064.126.064c.07 0 .127.028.127.063 0 .034.058.064.127.064.07 0 .127.028.127.063 0 .034.087.064.19.064.106 0 .192.028.192.063 0 .034.086.064.19.064.105 0 .19.028.19.063 0 .034.086.064.19.064.105 0 .19.028.19.063 0 .034.116.064.256.064.139 0 .254.028.254.063 0 .034.142.064.316.064.176 0 .318.028.318.063s.17.064.381.064c.212 0 .381.027.381.063 0 .04.592.063 1.65.063 1.06 0 1.651-.023 1.651-.064 0-.034.17-.063.381-.063.212 0 .381-.028.381-.063s.114-.063.254-.063.254-.029.254-.064.085-.063.19-.063.19-.029.19-.064.087-.063.192-.063c.104 0 .19-.029.19-.064s.058-.063.127-.063c.07 0 .127-.029.127-.064s.086-.063.19-.063c.105 0 .191-.029.191-.064s.05-.063.113-.063c.062 0 .154-.058.204-.127.05-.07.137-.127.191-.127.054 0 .14-.058.19-.128.05-.069.131-.126.179-.126.048 0 .168-.086.266-.19.097-.105.21-.19.25-.19.093 0 .511-.42.511-.513 0-.04.086-.153.191-.25.105-.098.19-.217.19-.265 0-.049.057-.13.127-.18.07-.05.127-.142.127-.204s.029-.112.064-.112.063-.058.063-.128.029-.127.064-.127.063-.057.063-.127c0-.069.029-.127.064-.127s.063-.086.063-.19c0-.105.029-.19.064-.19s.063-.17.063-.382c0-.211.029-.38.064-.38.038 0 .063-.254.063-.635 0-.382-.025-.636-.063-.636-.035 0-.064-.169-.064-.38 0-.212-.028-.381-.063-.381s-.064-.114-.064-.254-.028-.254-.063-.254-.064-.057-.064-.127-.028-.127-.063-.127-.064-.057-.064-.127-.028-.127-.063-.127-.064-.057-.064-.127-.028-.127-.063-.127-.064-.045-.064-.1c0-.054-.142-.238-.317-.408-.175-.17-.317-.342-.317-.382 0-.094-.161-.252-.256-.252-.04 0-.155-.087-.252-.19-.098-.106-.218-.192-.265-.192-.049 0-.129-.057-.18-.126-.05-.07-.142-.128-.205-.128-.06 0-.112-.029-.112-.063 0-.035-.058-.064-.127-.064-.07 0-.127-.029-.127-.063 0-.035-.058-.064-.127-.064-.07 0-.127-.028-.127-.063s-.057-.064-.127-.064-.127-.028-.127-.063-.057-.064-.127-.064-.127-.028-.127-.063c0-.034-.086-.064-.19-.064-.105 0-.191-.028-.191-.063 0-.034-.086-.064-.19-.064-.106 0-.191-.028-.191-.063 0-.034-.057-.064-.127-.064s-.127-.028-.127-.063c0-.034-.085-.064-.19-.064s-.19-.028-.19-.063c0-.034-.086-.064-.19-.064-.106 0-.192-.028-.192-.063 0-.034-.085-.064-.19-.064s-.19-.028-.19-.063c0-.034-.114-.064-.254-.064s-.254-.028-.254-.063c0-.034-.086-.063-.191-.063-.105 0-.19-.029-.19-.064 0-.034-.115-.063-.254-.063-.14 0-.254-.029-.254-.063 0-.035-.086-.064-.19-.064-.105 0-.192-.029-.192-.063 0-.035-.085-.064-.19-.064-.104 0-.19-.029-.19-.064s-.086-.063-.19-.063c-.105 0-.191-.029-.191-.064s-.057-.063-.127-.063-.127-.029-.127-.064-.057-.063-.127-.063-.127-.029-.127-.064-.057-.063-.127-.063-.127-.029-.127-.064-.043-.063-.097-.063c-.125 0-.919-.795-.919-.92 0-.052-.028-.096-.064-.096-.037 0-.063-.27-.063-.684 0-.612.014-.695.127-.776.07-.05.127-.13.127-.175 0-.116.42-.524.538-.524.053 0 .097-.028.097-.063 0-.034.057-.064.127-.064s.127-.028.127-.063c0-.034.086-.064.19-.064.105 0 .19-.028.19-.063 0-.034.144-.063.319-.063.174 0 .317-.029.317-.064 0-.04.423-.063 1.143-.063s1.142.023 1.142.063c0 .035.17.064.381.064.212 0 .381.028.381.063s.114.063.254.063.254.029.254.064.085.063.19.063.19.029.19.064.087.063.192.063c.104 0 .19.029.19.064s.058.063.127.063c.07 0 .127.029.127.064s.058.063.127.063c.07 0 .126.029.126.064s.058.063.128.063.127.029.127.064.057.063.127.063.127.029.127.064.057.063.127.063.127.029.127.064.051.063.112.063c.063 0 .155.057.205.127.051.07.136.127.19.127.055 0 .14.057.19.127.052.07.143.127.206.127.07 0 .113-.048.113-.127 0-.07.028-.127.063-.127s.064-.086.064-.19c0-.105.028-.19.063-.19s.063-.058.063-.128c0-.069.029-.127.064-.127s.064-.057.064-.127c0-.069.028-.127.063-.127s.063-.057.063-.127c0-.069.029-.127.064-.127s.063-.05.063-.112c0-.063.057-.155.127-.205.07-.05.127-.142.127-.204s.029-.113.064-.113.063-.057.063-.127.029-.127.064-.127.063-.057.063-.127.029-.127.064-.127.063-.045.063-.1c0-.117-.15-.281-.255-.281-.041 0-.155-.086-.253-.19-.097-.105-.223-.19-.279-.19-.056 0-.102-.03-.102-.065 0-.034-.05-.063-.113-.063-.062 0-.153-.058-.204-.127-.05-.07-.142-.127-.204-.127s-.113-.029-.113-.064c0-.034-.057-.063-.127-.063s-.127-.029-.127-.064c0-.034-.086-.063-.191-.063-.104 0-.19-.029-.19-.063 0-.035-.057-.064-.127-.064s-.127-.029-.127-.063c0-.035-.086-.064-.19-.064-.105 0-.19-.029-.19-.063 0-.035-.087-.064-.192-.064-.104 0-.19-.029-.19-.063 0-.035-.114-.064-.254-.064S91.76.959 91.76.925c0-.035-.114-.064-.254-.064s-.254-.029-.254-.063c0-.035-.114-.064-.254-.064s-.254-.029-.254-.063c0-.037-.211-.064-.508-.064-.296 0-.507-.026-.507-.063 0-.04-.424-.064-1.143-.064-.72 0-1.143.023-1.143.064ZM1.1 10.194v9.333h13.333v-2.92H4.53V8.823c0-6.659-.014-7.795-.09-7.872C4.364.878 4.046.86 2.724.86H1.101v9.333ZM24.988 1.02a.55.55 0 0 0-.143.314c0 .089-.028.16-.063.16s-.064.058-.064.128-.028.127-.063.127c-.034 0-.064.057-.064.127s-.028.127-.063.127c-.034 0-.064.057-.064.127s-.028.127-.063.127c-.034 0-.064.086-.064.19 0 .105-.028.19-.063.19-.034 0-.064.058-.064.128 0 .069-.028.127-.063.127-.034 0-.064.057-.064.127 0 .069-.028.127-.063.127-.034 0-.064.057-.064.127 0 .069-.028.127-.063.127-.034 0-.064.086-.064.19 0 .105-.028.19-.063.19-.034 0-.063.057-.063.127s-.029.127-.063.127c-.035 0-.064.057-.064.127s-.029.127-.063.127c-.035 0-.064.057-.064.127s-.029.127-.063.127c-.035 0-.064.087-.064.19 0 .106-.029.191-.063.191-.035 0-.064.057-.064.127s-.029.127-.063.127c-.035 0-.064.057-.064.127s-.029.127-.063.127c-.035 0-.064.058-.064.127 0 .07-.029.127-.063.127-.036 0-.064.086-.064.19 0 .105-.029.19-.064.19s-.063.058-.063.128-.029.127-.064.127-.063.057-.063.127-.028.127-.064.127c-.034 0-.063.08-.063.176a.344.344 0 0 1-.127.268.346.346 0 0 0-.127.268c0 .097-.028.177-.064.177-.034 0-.063.057-.063.127 0 .069-.028.127-.064.127-.034 0-.063.057-.063.127 0 .069-.028.127-.064.127-.034 0-.063.057-.063.127 0 .069-.028.127-.064.127-.034 0-.063.086-.063.19 0 .105-.028.19-.063.19s-.064.057-.064.127-.028.127-.064.127c-.034 0-.063.087-.063.19 0 .106-.029.191-.063.191-.035 0-.063.058-.063.127 0 .07-.03.127-.064.127-.035 0-.063.057-.063.127s-.03.127-.064.127c-.035 0-.063.058-.063.127 0 .07-.03.127-.064.127-.035 0-.063.058-.063.127 0 .07-.03.128-.064.128-.035 0-.064.057-.064.127 0 .069-.029.127-.063.127-.035 0-.064.056-.064.127 0 .069-.029.126-.063.126-.035 0-.064.086-.064.19 0 .105-.028.19-.063.19s-.064.058-.064.128-.029.127-.063.127c-.035 0-.064.086-.064.19 0 .105-.028.19-.063.19-.034 0-.064.058-.064.128 0 .069-.028.127-.063.127s-.064.057-.064.127c0 .069-.028.127-.063.127-.034 0-.064.057-.064.127 0 .069-.028.127-.063.127-.034 0-.064.086-.064.19 0 .105-.028.19-.063.19-.034 0-.064.057-.064.127s-.028.127-.063.127c-.034 0-.064.057-.064.127s-.028.127-.063.127c-.034 0-.064.057-.064.127s-.028.127-.063.127c-.034 0-.063.057-.063.127s-.029.127-.064.127c-.034 0-.064.086-.064.191 0 .104-.028.19-.063.19-.034 0-.063.058-.063.127 0 .07-.029.128-.063.128-.035 0-.064.057-.064.127 0 .069-.029.127-.064.127s-.063.085-.063.19-.029.19-.063.19c-.036 0-.064.058-.064.127 0 .07-.029.127-.064.127s-.063.057-.063.127-.029.127-.064.127-.063.057-.063.127-.029.127-.064.127-.063.087-.063.19c0 .105-.029.191-.064.191-.034 0-.063.057-.063.127 0 .069-.029.127-.064.127s-.063.057-.063.127c0 .069-.029.127-.064.127-.034 0-.063.057-.063.127s-.028.127-.064.127c-.034 0-.063.057-.063.127s-.028.127-.064.127c-.034 0-.063.086-.063.19 0 .105-.028.19-.064.19-.034 0-.063.058-.063.127 0 .07-.028.127-.064.127-.034 0-.063.057-.063.127s-.028.127-.064.127c-.034 0-.063.087-.063.191 0 .105-.029.19-.064.19-.034 0-.063.058-.063.128 0 .069-.029.127-.064.127-.034 0-.063.057-.063.127 0 .069-.029.127-.063.127-.035 0-.064.057-.064.127 0 .069-.029.127-.063.127a.064.064 0 0 0-.064.063c0 .04.635.064 1.778.064 1.736 0 1.777-.004 1.777-.127 0-.07.029-.127.064-.127.034 0 .063-.058.063-.127 0-.07.03-.127.064-.127.035 0 .063-.087.063-.19 0-.106.03-.192.064-.192s.063-.057.063-.126c0-.07.03-.128.064-.128s.063-.085.063-.19c0-.104.03-.19.064-.19s.063-.058.063-.128c0-.069.03-.127.064-.127s.063-.057.063-.127c0-.069.03-.127.064-.127s.064-.056.064-.126.028-.127.063-.127c.034 0 .064-.086.064-.19 0-.106.028-.19.063-.19.034 0 .064-.058.064-.128s.028-.127.063-.127c.034 0 .063-.057.063-.127s.029-.127.064-.127c.034 0 .063-.086.063-.19 0-.105.029-.19.063-.19.035 0 .064-.058.064-.128s.029-.127.063-.127c.035 0 .064-.045.064-.1 0-.287-.112-.28 5.106-.28 4.679 0 4.925.005 4.925.112 0 .063.057.154.127.204a.346.346 0 0 1 .127.268c0 .098.028.177.064.177.034 0 .063.057.063.127s.028.127.064.127c.034 0 .063.057.063.127 0 .069.028.127.064.127.034 0 .063.057.063.127 0 .069.028.127.064.127.034 0 .063.057.063.127s.028.127.063.127.064.086.064.19c0 .105.028.19.063.19s.063.058.063.128.029.126.064.126.064.058.064.127c0 .07.029.127.063.127.035 0 .063.057.063.127s.029.127.064.127.064.058.064.127c0 .07.028.128.063.128s.064.057.064.126c0 .07.029.128.063.128.035 0 .064.057.064.127 0 .069.029.127.063.127.035 0 .063.057.063.127 0 .069.03.127.064.127.035 0 .064.057.064.127 0 .124.042.127 1.968.127 1.27 0 1.967-.023 1.967-.064a.064.064 0 0 0-.063-.063c-.034 0-.063-.057-.063-.127s-.029-.127-.064-.127c-.034 0-.064-.057-.064-.127s-.028-.127-.063-.127c-.034 0-.063-.058-.063-.127 0-.07-.029-.128-.063-.128-.035 0-.064-.057-.064-.126 0-.07-.029-.128-.063-.128-.035 0-.064-.085-.064-.19 0-.104-.029-.19-.063-.19-.035 0-.064-.058-.064-.128 0-.069-.029-.127-.063-.127-.035 0-.064-.057-.064-.127 0-.069-.029-.127-.063-.127-.035 0-.064-.056-.064-.126s-.029-.127-.063-.127c-.035 0-.064-.057-.064-.127s-.029-.127-.063-.127c-.035 0-.064-.057-.064-.127s-.029-.127-.063-.127c-.035 0-.064-.057-.064-.127s-.029-.127-.063-.127c-.035 0-.064-.057-.064-.127s-.028-.127-.063-.127-.064-.057-.064-.127c0-.069-.028-.127-.063-.127s-.064-.057-.064-.127-.028-.127-.063-.127c-.034 0-.064-.057-.064-.127s-.028-.127-.064-.127c-.034 0-.063-.057-.063-.127s-.028-.127-.063-.127c-.034 0-.064-.086-.064-.19 0-.105-.028-.19-.064-.19-.034 0-.063-.058-.063-.127 0-.07-.028-.127-.064-.127-.034 0-.063-.058-.063-.128s-.028-.126-.063-.126-.063-.058-.063-.128-.029-.127-.064-.127-.064-.057-.064-.127c0-.069-.028-.127-.063-.127s-.063-.057-.063-.127c0-.069-.029-.127-.064-.127s-.063-.057-.063-.127c0-.069-.029-.127-.064-.127s-.063-.057-.063-.127c0-.069-.029-.127-.064-.127s-.063-.057-.063-.127c0-.069-.029-.126-.064-.126s-.063-.057-.063-.127-.029-.127-.064-.127-.063-.057-.063-.127-.029-.127-.064-.127-.063-.057-.063-.127-.029-.127-.064-.127-.063-.087-.063-.19c0-.106-.03-.191-.064-.191-.035 0-.063-.057-.063-.127s-.029-.127-.064-.127-.063-.057-.063-.127-.028-.127-.064-.127c-.034 0-.064-.057-.064-.127s-.028-.127-.063-.127c-.034 0-.064-.057-.064-.127s-.028-.127-.063-.127c-.034 0-.063-.056-.063-.127 0-.07-.03-.126-.064-.126s-.063-.058-.063-.127c0-.07-.03-.128-.064-.128s-.064-.057-.064-.126c0-.07-.028-.128-.063-.128-.034 0-.063-.057-.063-.127s-.029-.127-.064-.127c-.034 0-.063-.057-.063-.127 0-.069-.029-.127-.064-.127-.034 0-.063-.057-.063-.127 0-.069-.029-.127-.063-.127-.035 0-.064-.057-.064-.127 0-.069-.029-.127-.063-.127-.035 0-.064-.085-.064-.19s-.029-.19-.063-.19c-.035 0-.064-.058-.064-.127 0-.07-.029-.127-.063-.127-.035 0-.064-.057-.064-.127s-.029-.127-.063-.127c-.035 0-.064-.057-.064-.127s-.029-.127-.063-.127c-.035 0-.064-.057-.064-.127s-.029-.127-.063-.127c-.035 0-.064-.057-.064-.127s-.029-.127-.063-.127c-.035 0-.064-.057-.064-.127s-.029-.127-.063-.127c-.035 0-.064-.057-.064-.127s-.029-.127-.064-.127c-.034 0-.063-.057-.063-.127s-.028-.127-.064-.127c-.034 0-.063-.058-.063-.127 0-.07-.028-.127-.064-.127-.034 0-.063-.057-.063-.127s-.028-.127-.063-.127-.064-.057-.064-.127-.028-.127-.064-.127c-.034 0-.063-.057-.063-.127s-.028-.127-.064-.127c-.034 0-.063-.057-.063-.127s-.028-.127-.064-.127c-.034 0-.063-.08-.063-.176a.344.344 0 0 0-.127-.268.351.351 0 0 1-.127-.254.352.352 0 0 0-.126-.254.346.346 0 0 1-.127-.267c0-.098-.029-.177-.064-.177s-.063-.057-.063-.127-.029-.127-.064-.127-.063-.057-.063-.127-.029-.127-.064-.127-.063-.057-.063-.127-.029-.127-.064-.127-.063-.057-.063-.127-.03-.127-.064-.127c-.035 0-.063-.057-.063-.127s-.03-.127-.064-.127c-.035 0-.063-.057-.063-.127s-.029-.127-.064-.127-.063-.058-.063-.127c0-.07-.03-.127-.064-.127-.035 0-.064-.058-.064-.127 0-.07-.028-.127-.063-.127-.034 0-.064-.058-.064-.127 0-.07-.028-.127-.063-.127-.034 0-.064-.057-.064-.127s-.028-.127-.063-.127c-.034 0-.064-.045-.064-.1 0-.267-.095-.281-1.98-.277L25.132.87l-.143.152ZM97.73 2.294c0 1.158.017 1.451.09 1.524.077.076.587.09 3.175.09h3.083v15.619h3.302V3.908h6.603V.861H97.729v1.433Zm19.173 7.9v9.333h14.602v-2.92H120.33v-4.954h4.698c4.656 0 4.698 0 4.698-.127 0-.07.029-.127.064-.127.04 0 .063-.36.063-.952 0-.593-.023-.953-.063-.953-.092 0-.079-.236.016-.28.064-.03.064-.045 0-.074-.044-.02-.08-.12-.08-.222v-.185h-9.396V3.909h10.793V.861h-14.221v9.333ZM69.16 3.845c0 .037.19.063.444.063s.444.028.444.064c0 .035.114.063.254.063s.254.029.254.064.086.063.19.063c.105 0 .19.029.19.064s.087.063.19.063c.106 0 .193.029.193.064s.057.063.126.063c.07 0 .128.029.128.064s.056.063.127.063c.069 0 .126.029.126.064s.05.063.113.063c.062 0 .154.057.204.127.051.07.13.127.178.127.048 0 .196.115.33.254.135.14.276.254.315.254.092 0 .51.42.51.511 0 .039.115.18.255.314s.254.284.254.33c0 .048.056.128.127.178.07.051.126.143.126.205s.029.112.064.112.063.058.063.128.029.127.064.127.063.057.063.127c0 .069.029.127.064.127s.063.086.063.19c0 .105.029.19.064.19s.063.087.063.19c0 .106.029.192.064.192s.063.114.063.253c0 .14.029.254.064.254s.063.17.063.381c0 .212.029.381.064.381.038 0 .063.233.063.572 0 .338-.026.571-.063.571-.036 0-.064.19-.064.444s-.027.445-.063.445c-.034 0-.064.114-.064.254s-.028.254-.063.254c-.034 0-.064.086-.064.19 0 .105-.028.19-.063.19-.034 0-.064.058-.064.128s-.028.127-.063.127c-.034 0-.064.086-.064.19 0 .105-.028.19-.063.19-.034 0-.064.052-.064.114 0 .062-.057.153-.127.204-.069.05-.126.136-.126.19 0 .055-.057.141-.127.19-.07.052-.127.13-.127.175 0 .107-1.18 1.286-1.287 1.286-.045 0-.123.057-.173.127-.052.07-.143.127-.205.127-.063 0-.113.029-.113.063 0 .035-.052.064-.113.064-.062 0-.154.057-.204.127-.05.07-.143.127-.205.127s-.113.029-.113.063c0 .035-.086.064-.19.064-.105 0-.19.029-.19.063 0 .035-.058.064-.128.064s-.127.028-.127.063-.114.064-.254.064c-.139 0-.254.029-.254.063 0 .035-.142.064-.317.064-.175 0-.318.028-.318.063 0 .04-.402.064-1.08.064-.676 0-1.079-.023-1.079-.063 0-.035-.142-.064-.316-.064-.175 0-.318-.029-.318-.064 0-.034-.114-.063-.254-.063s-.254-.029-.254-.063c0-.036-.057-.064-.127-.064s-.127-.028-.127-.064c0-.034-.085-.063-.19-.063s-.19-.028-.19-.064c0-.034-.058-.063-.128-.063-.069 0-.127-.028-.127-.064 0-.034-.05-.063-.112-.063-.063 0-.155-.057-.205-.127-.05-.07-.136-.127-.19-.127-.055 0-.14-.057-.19-.127-.052-.07-.13-.127-.175-.127-.106 0-1.287-1.18-1.287-1.286 0-.045-.057-.124-.127-.174-.069-.05-.126-.142-.126-.205 0-.062-.03-.112-.064-.112s-.063-.052-.063-.113c0-.062-.058-.155-.128-.205-.069-.05-.127-.142-.127-.204 0-.063-.028-.113-.063-.113-.034 0-.063-.086-.063-.19 0-.106-.029-.19-.064-.19-.034 0-.063-.087-.063-.191 0-.106-.029-.191-.063-.191-.035 0-.064-.087-.064-.19 0-.105-.029-.191-.063-.191-.036 0-.064-.17-.064-.38 0-.212-.028-.382-.063-.382-.04 0-.064-.296-.064-.762 0-.465.025-.762.064-.762.034 0 .063-.17.063-.38 0-.212.028-.382.064-.382.034 0 .063-.114.063-.254s.028-.253.064-.253c.034 0 .063-.087.063-.19 0-.106.028-.191.063-.191s.064-.057.064-.127.029-.127.063-.127c.035 0 .064-.057.064-.127s.029-.127.063-.127c.035 0 .063-.057.063-.127s.029-.127.064-.127.063-.052.063-.113c0-.062.058-.154.128-.205.07-.05.126-.13.126-.179 0-.048.087-.167.191-.265.105-.098.19-.21.19-.25 0-.092.547-.64.64-.64.037 0 .179-.113.313-.253s.283-.254.33-.254c.048 0 .127-.057.178-.127.05-.069.142-.127.204-.127s.113-.028.113-.063c0-.034.057-.064.127-.064s.127-.028.127-.063c0-.034.057-.064.127-.064s.127-.028.127-.063c0-.034.086-.064.19-.064.105 0 .19-.028.19-.063 0-.034.087-.064.19-.064.106 0 .192-.028.192-.063 0-.034.115-.064.254-.064.14 0 .254-.028.254-.063 0-.036.19-.064.444-.064s.445-.026.445-.063c0-.038.233-.063.57-.063.34 0 .573.025.573.063Zm-42.247.536a.322.322 0 0 1 .091.19c0 .054.029.1.063.1.035 0 .064.085.064.19 0 .104.029.19.063.19.035 0 .064.057.064.127s.029.127.064.127c.034 0 .063.058.063.127 0 .07.028.127.063.127s.064.058.064.127c0 .07.028.127.064.127.034 0 .063.058.063.127 0 .07.028.127.064.127.034 0 .063.057.063.127s.028.127.064.127c.034 0 .063.057.063.127s.028.127.064.127c.034 0 .063.086.063.19 0 .106.028.19.064.19.034 0 .063.058.063.128s.028.127.064.127c.034 0 .063.057.063.127 0 .069.028.127.063.127s.064.057.064.127c0 .069.028.127.063.127s.064.086.064.19c0 .105.028.19.063.19s.063.058.063.128c0 .069.029.127.064.127s.063.057.063.126c0 .07.029.127.064.127s.063.057.063.127.029.127.064.127.063.057.063.127.03.127.064.127c.035 0 .064.057.064.127s.028.127.063.127.063.057.063.127.03.127.064.127c.035 0 .064.086.064.19 0 .105.028.19.063.19s.064.059.064.128c0 .07.028.128.063.128s.064.057.064.127c0 .069.028.127.063.127.034 0 .064.056.064.127 0 .069.028.126.063.126.034 0 .064.086.064.19 0 .105.028.19.063.19.034 0 .064.058.064.128s.028.127.063.127c.034 0 .064.057.064.127s.028.127.063.127c.034 0 .064.057.064.127s.028.127.063.127c.034 0 .064.057.064.127 0 .069.028.127.063.127.034 0 .064.057.064.127 0 .125-.044.127-3.619.127-3.577 0-3.618-.002-3.618-.127 0-.07.027-.127.063-.127.034 0 .063-.057.063-.127s.028-.127.064-.127c.034 0 .063-.086.063-.19 0-.105.028-.19.064-.19.034 0 .063-.058.063-.128s.028-.127.064-.127c.034 0 .063-.057.063-.127s.028-.127.063-.127.063-.086.063-.19c0-.105.029-.19.064-.19s.063-.057.063-.127.029-.127.064-.127.063-.058.063-.127c0-.07.029-.128.064-.128s.063-.086.063-.19c0-.105.029-.19.064-.19s.063-.058.063-.128.029-.127.064-.127.063-.085.063-.19c0-.104.029-.19.064-.19s.063-.058.063-.128c0-.069.03-.127.064-.127.035 0 .063-.057.063-.127 0-.069.029-.127.064-.127s.063-.086.063-.19c0-.105.03-.19.064-.19s.064-.057.064-.127.028-.127.063-.127c.034 0 .063-.057.063-.127s.03-.127.064-.127.064-.057.064-.127.028-.127.063-.127c.034 0 .064-.086.064-.19 0-.105.028-.191.063-.191.034 0 .064-.057.064-.127s.028-.127.063-.127c.034 0 .064-.057.064-.127s.028-.127.063-.127c.034 0 .064-.086.064-.19 0-.105.028-.19.063-.19.034 0 .063-.058.063-.128s.029-.127.064-.127c.034 0 .063-.086.063-.19 0-.105.029-.19.064-.19.034 0 .063-.058.063-.128s.029-.127.063-.127c.035 0 .064-.057.064-.127s.029-.127.063-.127c.035 0 .064-.057.064-.127s.029-.127.063-.127c.035 0 .064-.072.064-.161 0-.135.104-.335.179-.344.042.022.08.052.111.088Z" fill="#050038"/></g><defs><clipPath id="a"><path fill="#fff" transform="translate(.734 .092)" d="M0 0h131.266v19.863H0z"/></clipPath></defs></svg>