<svg width="104" height="29" fill="none" xmlns="http://www.w3.org/2000/svg"><g clip-path="url(#a)"><path d="M14.471 26.628c-1.559.27-3.145.351-4.786.567L4.679 12.73v15.086c-1.559.161-2.98.377-4.458.593V.774H4.38l5.689 15.68V.774h4.403v25.854Zm8.615-15.733c1.696 0 4.295-.082 5.854-.082v4.318c-1.943 0-4.212 0-5.854.081v6.423c2.572-.162 5.142-.378 7.74-.459v4.156l-12.116.945V.774h12.117v4.318h-7.74v5.803ZM47.1 5.092h-4.54v19.863c-1.477 0-2.954 0-4.376.054V5.092h-4.54V.774H47.1v4.318Zm7.111 5.506h5.99v4.317h-5.99v9.797h-4.294V.774h12.226v4.318h-7.932v5.506Zm15.043 10.336c2.49.054 5.005.243 7.44.377v4.265c-3.912-.244-7.823-.486-11.816-.567V.774h4.376v20.16Zm11.132 4.938c1.395.081 2.872.163 4.294.324V.774h-4.294v25.098ZM103.853.774l-5.552 13.143 5.552 14.492c-1.641-.216-3.283-.513-4.924-.782l-3.145-7.988-3.2 7.34c-1.586-.27-3.118-.351-4.703-.567l5.634-12.657L88.427.775h4.704l2.872 7.259 3.064-7.26h4.786Z" fill="#050038"/></g><defs><clipPath id="a"><path fill="#fff" transform="translate(.221 .774)" d="M0 0h103.631v27.635H0z"/></clipPath></defs></svg>